<mxfile host="app.diagrams.net" modified="2022-05-02T13:06:07.490Z" agent="5.0 (Macintosh; Intel Mac OS X 10_15_7) AppleWebKit/605.1.15 (KHTML, like Gecko) Version/15.4 Safari/605.1.15" etag="5lnYSihmRTXCk3F55R_R" version="17.4.6" type="github">
  <diagram id="QpBjXaZv58pvL9R-0wRu" name="Page-1">
    <mxGraphModel dx="865" dy="800" grid="1" gridSize="10" guides="1" tooltips="1" connect="1" arrows="1" fold="1" page="1" pageScale="1" pageWidth="850" pageHeight="1100" math="0" shadow="0">
      <root>
        <mxCell id="0" />
        <mxCell id="1" parent="0" />
        <mxCell id="yC53JciDfnrSa3dw4U8t-9" style="edgeStyle=orthogonalEdgeStyle;rounded=0;orthogonalLoop=1;jettySize=auto;html=1;entryX=0.5;entryY=0;entryDx=0;entryDy=0;" edge="1" parent="1" source="yC53JciDfnrSa3dw4U8t-3" target="yC53JciDfnrSa3dw4U8t-5">
          <mxGeometry relative="1" as="geometry" />
        </mxCell>
        <mxCell id="yC53JciDfnrSa3dw4U8t-3" value="&lt;span&gt;实例（父）：ObservableObject&lt;/span&gt;" style="rounded=0;whiteSpace=wrap;html=1;" vertex="1" parent="1">
          <mxGeometry x="60" y="120" width="220" height="50" as="geometry" />
        </mxCell>
        <mxCell id="yC53JciDfnrSa3dw4U8t-11" style="edgeStyle=orthogonalEdgeStyle;rounded=0;orthogonalLoop=1;jettySize=auto;html=1;" edge="1" parent="1" source="yC53JciDfnrSa3dw4U8t-5" target="yC53JciDfnrSa3dw4U8t-6">
          <mxGeometry relative="1" as="geometry" />
        </mxCell>
        <mxCell id="yC53JciDfnrSa3dw4U8t-12" style="edgeStyle=orthogonalEdgeStyle;rounded=0;orthogonalLoop=1;jettySize=auto;html=1;exitX=0.5;exitY=1;exitDx=0;exitDy=0;entryX=0.5;entryY=0;entryDx=0;entryDy=0;" edge="1" parent="1" source="yC53JciDfnrSa3dw4U8t-6" target="yC53JciDfnrSa3dw4U8t-10">
          <mxGeometry relative="1" as="geometry" />
        </mxCell>
        <mxCell id="yC53JciDfnrSa3dw4U8t-5" value="&lt;span&gt;属性（子）PublishedObject&lt;/span&gt;" style="rounded=0;whiteSpace=wrap;html=1;" vertex="1" parent="1">
          <mxGeometry x="60" y="240" width="220" height="30" as="geometry" />
        </mxCell>
        <mxCell id="yC53JciDfnrSa3dw4U8t-6" value="wrappedValue" style="rounded=0;whiteSpace=wrap;html=1;" vertex="1" parent="1">
          <mxGeometry x="360" y="240" width="170" height="30" as="geometry" />
        </mxCell>
        <mxCell id="yC53JciDfnrSa3dw4U8t-14" style="edgeStyle=orthogonalEdgeStyle;rounded=0;orthogonalLoop=1;jettySize=auto;html=1;exitX=1;exitY=0.5;exitDx=0;exitDy=0;entryX=0;entryY=0.5;entryDx=0;entryDy=0;" edge="1" parent="1" source="yC53JciDfnrSa3dw4U8t-10" target="yC53JciDfnrSa3dw4U8t-13">
          <mxGeometry relative="1" as="geometry" />
        </mxCell>
        <mxCell id="yC53JciDfnrSa3dw4U8t-10" value="storage" style="rounded=0;whiteSpace=wrap;html=1;" vertex="1" parent="1">
          <mxGeometry x="360" y="320" width="170" height="30" as="geometry" />
        </mxCell>
        <mxCell id="yC53JciDfnrSa3dw4U8t-13" value="ObservableObject" style="rounded=0;whiteSpace=wrap;html=1;" vertex="1" parent="1">
          <mxGeometry x="570" y="320" width="170" height="30" as="geometry" />
        </mxCell>
      </root>
    </mxGraphModel>
  </diagram>
</mxfile>
